<?xml version="1.0" encoding="UTF-8"?>
<svg xmlns="http://www.w3.org/2000/svg" xmlns:xlink="http://www.w3.org/1999/xlink" width="40px" height="40px" viewBox="0 0 40 40" version="1.1">
<g id="surface1">
<path style=" stroke:none;fill-rule:nonzero;fill:rgb(3.921569%,3.921569%,3.137255%);fill-opacity:1;" d="M 20 3.605469 C 25.339844 3.605469 25.972656 3.621094 28.082031 3.722656 C 30.03125 3.808594 31.089844 4.136719 31.796875 4.40625 C 32.730469 4.769531 33.394531 5.203125 34.09375 5.90625 C 34.796875 6.605469 35.230469 7.269531 35.59375 8.203125 C 35.863281 8.910156 36.191406 9.96875 36.277344 11.917969 C 36.378906 14.027344 36.394531 14.660156 36.394531 20 C 36.394531 25.339844 36.378906 25.972656 36.277344 28.082031 C 36.191406 30.03125 35.863281 31.089844 35.59375 31.796875 C 35.230469 32.730469 34.796875 33.394531 34.09375 34.09375 C 33.394531 34.796875 32.730469 35.230469 31.796875 35.59375 C 31.089844 35.863281 30.03125 36.191406 28.082031 36.277344 C 25.972656 36.378906 25.339844 36.394531 20 36.394531 C 14.660156 36.394531 14.027344 36.378906 11.917969 36.277344 C 9.96875 36.191406 8.910156 35.863281 8.203125 35.59375 C 7.269531 35.230469 6.605469 34.796875 5.90625 34.09375 C 5.203125 33.394531 4.769531 32.730469 4.40625 31.796875 C 4.136719 31.089844 3.808594 30.03125 3.722656 28.082031 C 3.621094 25.972656 3.605469 25.339844 3.605469 20 C 3.605469 14.660156 3.621094 14.027344 3.722656 11.917969 C 3.808594 9.96875 4.136719 8.910156 4.40625 8.203125 C 4.769531 7.269531 5.203125 6.605469 5.90625 5.90625 C 6.605469 5.203125 7.269531 4.769531 8.203125 4.40625 C 8.910156 4.136719 9.96875 3.808594 11.917969 3.722656 C 14.027344 3.621094 14.660156 3.605469 20 3.605469 M 20 0 C 14.566406 0 13.886719 0.0234375 11.753906 0.121094 C 9.625 0.21875 8.171875 0.554688 6.898438 1.050781 C 5.582031 1.5625 4.46875 2.246094 3.359375 3.359375 C 2.246094 4.46875 1.5625 5.582031 1.050781 6.898438 C 0.554688 8.171875 0.21875 9.625 0.121094 11.753906 C 0.0234375 13.886719 0 14.566406 0 20 C 0 25.433594 0.0234375 26.113281 0.121094 28.246094 C 0.21875 30.375 0.554688 31.828125 1.050781 33.101562 C 1.5625 34.417969 2.246094 35.53125 3.359375 36.640625 C 4.46875 37.753906 5.582031 38.4375 6.898438 38.949219 C 8.171875 39.445312 9.625 39.78125 11.753906 39.878906 C 13.886719 39.976562 14.566406 40 20 40 C 25.433594 40 26.113281 39.976562 28.246094 39.878906 C 30.375 39.78125 31.828125 39.445312 33.101562 38.949219 C 34.417969 38.4375 35.53125 37.753906 36.640625 36.640625 C 37.753906 35.53125 38.4375 34.417969 38.949219 33.101562 C 39.445312 31.828125 39.78125 30.375 39.878906 28.246094 C 39.976562 26.113281 40 25.433594 40 20 C 40 14.566406 39.976562 13.886719 39.878906 11.753906 C 39.78125 9.625 39.445312 8.171875 38.949219 6.898438 C 38.4375 5.582031 37.753906 4.46875 36.640625 3.359375 C 35.53125 2.246094 34.417969 1.5625 33.101562 1.050781 C 31.828125 0.554688 30.375 0.21875 28.246094 0.121094 C 26.113281 0.0234375 25.433594 0 20 0 Z M 20 9.730469 C 14.328125 9.730469 9.730469 14.328125 9.730469 20 C 9.730469 25.671875 14.328125 30.269531 20 30.269531 C 25.671875 30.269531 30.269531 25.671875 30.269531 20 C 30.269531 14.328125 25.671875 9.730469 20 9.730469 Z M 20 26.667969 C 16.320312 26.667969 13.332031 23.679688 13.332031 20 C 13.332031 16.320312 16.320312 13.332031 20 13.332031 C 23.679688 13.332031 26.667969 16.320312 26.667969 20 C 26.667969 23.679688 23.679688 26.667969 20 26.667969 Z M 33.078125 9.324219 C 33.078125 10.648438 32.003906 11.726562 30.675781 11.726562 C 29.351562 11.726562 28.273438 10.648438 28.273438 9.324219 C 28.273438 7.996094 29.351562 6.921875 30.675781 6.921875 C 32.003906 6.921875 33.078125 7.996094 33.078125 9.324219 Z M 33.078125 9.324219 "/>
</g>
</svg>
