<?xml version="1.0" encoding="UTF-8"?>
<svg xmlns="http://www.w3.org/2000/svg" xmlns:xlink="http://www.w3.org/1999/xlink" width="40px" height="40px" viewBox="0 0 40 40" version="1.1">
<g id="surface1">
<path style=" stroke:none;fill-rule:nonzero;fill:rgb(0%,0%,0%);fill-opacity:1;" d="M 6.25 24.375 C 6.25 18.625 9.125 12.625 12.5 12.625 C 14.375 12.625 15.875 13.75 18.25 17.125 C 16 20.625 14.625 22.75 14.625 22.75 C 11.625 27.5 10.625 28.5 9 28.5 C 7.375 28.625 6.25 27.125 6.25 24.375 M 25.875 22.25 L 23.75 18.75 C 23.25 17.875 22.625 17 22.125 16.25 C 24 13.375 25.5 11.875 27.375 11.875 C 31.125 11.875 34.125 17.5 34.125 24.5 C 34.125 27.125 33.25 28.625 31.5 28.625 C 29.75 28.625 29.125 27.5 25.875 22.25 M 20.5 13.75 C 17.75 10.125 15.375 8.75 12.625 8.75 C 6.875 8.75 2.5 16.375 2.5 24.375 C 2.5 29.375 4.875 32.5 8.875 32.5 C 11.75 32.5 13.75 31.125 17.5 24.625 C 17.5 24.625 19 21.875 20.125 20 C 20.5 20.625 20.875 21.25 21.25 22 L 23 25 C 26.375 30.75 28.25 32.625 31.625 32.625 C 35.5 32.625 37.625 29.375 37.625 24.25 C 37.5 15.75 33 8.75 27.625 8.75 C 24.75 8.75 22.5 11 20.5 13.75 "/>
</g>
</svg>
