<?xml version="1.0" encoding="UTF-8"?>
<svg xmlns="http://www.w3.org/2000/svg" xmlns:xlink="http://www.w3.org/1999/xlink" width="48px" height="48px" viewBox="0 0 48 48" version="1.1">
<g id="surface1">
<path style=" stroke:none;fill-rule:nonzero;fill:rgb(0%,0%,0%);fill-opacity:1;" d="M 40.828125 9.625 C 37.863281 7.9375 35.726562 5.242188 35.058594 2.097656 C 34.914062 1.421875 34.835938 0.722656 34.835938 0.0078125 L 25.371094 0.0078125 L 25.355469 33.070312 C 25.199219 36.773438 21.703125 39.742188 17.417969 39.742188 C 16.085938 39.742188 14.832031 39.453125 13.726562 38.945312 C 11.195312 37.785156 9.460938 35.472656 9.460938 32.808594 C 9.460938 28.984375 13.03125 25.875 17.417969 25.875 C 18.234375 25.875 19.019531 25.992188 19.761719 26.195312 L 19.761719 17.773438 C 18.992188 17.679688 18.214844 17.625 17.417969 17.625 C 7.8125 17.625 0 24.433594 0 32.808594 C 0 37.945312 2.941406 42.492188 7.4375 45.242188 C 10.265625 46.972656 13.707031 47.992188 17.417969 47.992188 C 27.023438 47.992188 34.835938 41.183594 34.835938 32.808594 L 34.835938 16.042969 C 38.546875 18.363281 43.09375 19.734375 48 19.734375 L 48 11.484375 C 45.355469 11.484375 42.894531 10.796875 40.828125 9.625 Z M 40.828125 9.625 "/>
</g>
</svg>
